<svg width="394" height="825" viewBox="0 0 394 825" fill="none" xmlns="http://www.w3.org/2000/svg">
  <path fill-rule="evenodd" clip-rule="evenodd" d="M345.875 0.535156H47.096C23.847 0.535156 5 19.3822 5 42.6311V782.904C5 806.153 23.847 825 47.096 825H345.875C369.124 825 387.971 806.153 387.971 782.904V42.6311C387.971 19.3822 369.124 0.535156 345.875 0.535156V0.535156ZM352.681 35.9575H40.5553C24.678 35.9575 11.8068 48.8286 11.8068 64.706V766.99C11.8068 782.867 24.678 795.738 40.5553 795.738H352.681C368.559 795.738 381.43 782.867 381.43 766.99V64.706C381.43 48.8286 368.559 35.9575 352.681 35.9575V35.9575Z" fill="#E7EDF3"/>
  <path d="M0 132.47C0 130.769 1.37905 129.39 3.08019 129.39V239.25C1.37905 239.25 0 237.871 0 236.17V132.47Z" fill="#E7EDF3"/>
  <path d="M0 283.4C0 281.698 1.37905 280.319 3.08019 280.319V341.923C1.37905 341.923 0 340.544 0 338.843V283.4Z" fill="#E7EDF3"/>
  <path d="M390.16 217.175C391.861 217.175 393.24 218.554 393.24 220.255V276.725C393.24 278.426 391.861 279.805 390.16 279.805V217.175Z" fill="#E7EDF3"/>
  <path fill-rule="evenodd" clip-rule="evenodd" d="M173.594 17H219.796C221.781 17 223.39 18.6089 223.39 20.5936C223.39 22.5782 221.781 24.1871 219.796 24.1871H173.594C171.609 24.1871 170 22.5782 170 20.5936C170 18.6089 171.609 17 173.594 17Z" fill="#D6DEE6"/>
  <path fill-rule="evenodd" clip-rule="evenodd" d="M262 27C265.314 27 268 24.3137 268 21C268 17.6863 265.314 15 262 15C258.686 15 256 17.6863 256 21C256 24.3137 258.686 27 262 27Z" fill="#D6DEE6"/>
  <path fill-rule="evenodd" clip-rule="evenodd" d="M129 25C131.209 25 133 23.2091 133 21C133 18.7909 131.209 17 129 17C126.791 17 125 18.7909 125 21C125 23.2091 126.791 25 129 25Z" fill="#D6DEE6"/>
  <path fill-rule="evenodd" clip-rule="evenodd" d="M141 25C143.209 25 145 23.2091 145 21C145 18.7909 143.209 17 141 17C138.791 17 137 18.7909 137 21C137 23.2091 138.791 25 141 25Z" fill="#D6DEE6"/>
</svg>
